<svg xmlns="http://www.w3.org/2000/svg" width="64" height="64" viewBox="0 0 64 64" role="img">
  <defs>
    <linearGradient id="primaryGradient" x1="0%" y1="0%" x2="100%" y2="100%">
      <stop offset="0%" stop-color="#0088cc" />
      <stop offset="100%" stop-color="#005580" />
    </linearGradient>
    <linearGradient id="secondaryGradient" x1="0%" y1="0%" x2="100%" y2="100%">
      <stop offset="0%" stop-color="#e74c3c" />
      <stop offset="100%" stop-color="#c0392b" />
    </linearGradient>
  </defs>
  
  <!-- Background -->
  <rect width="64" height="64" rx="12" fill="#f8f9fa" />
  
  <!-- Medical Cross Base -->
  <rect x="19.5" y="12" width="25" height="40" rx="2" fill="url(#primaryGradient)" />
  <rect x="12" y="19.5" width="40" height="25" rx="2" fill="url(#primaryGradient)" />
  
  <!-- Athletic Tape Wrapping -->
  <path d="M32 10 C 45 10, 50 20, 50 32 C 50 44, 45 54, 32 54 C 19 54, 14 44, 14 32 C 14 20, 19 10, 32 10 Z" fill="none" stroke="#f1c40f" stroke-width="3" stroke-dasharray="5,2.5" />
  
  <!-- Center Circle -->
  <circle cx="32" cy="32" r="10" fill="white" stroke="url(#secondaryGradient)" stroke-width="1.5" />
  
  <!-- Heartbeat Line -->
  <path d="M24.5 32 L 28.25 32 L 29.5 28.25 L 32 35.75 L 34.5 28.25 L 35.75 32 L 39.5 32" fill="none" stroke="url(#secondaryGradient)" stroke-width="1.5" stroke-linecap="round" stroke-linejoin="round" />
</svg>