<svg xmlns="http://www.w3.org/2000/svg" width="256" height="256" viewBox="0 0 256 256" role="img" aria-labelledby="title desc">
  <title id="title">Wrap Wizard Logo</title>
  <desc id="desc">A stylized teal athletic tape roll unfurling to the right.</desc>
  <defs>
    <linearGradient id="g" x1="0%" y1="0%" x2="100%" y2="0%">
      <stop offset="0%" stop-color="#27d7a7" />
      <stop offset="100%" stop-color="#18b47f" />
    </linearGradient>
    <clipPath id="c"><rect x="0" y="0" width="256" height="256" rx="36" /></clipPath>
  </defs>
  <g clip-path="url(#c)">
    <rect width="256" height="256" fill="none" />
    <g transform="translate(20 64)">
      <path d="M88 64c0-30.9 25.1-56 56-56 8.3 0 16.2 1.8 23.3 5.1C160.5 4.9 143.2 0 124 0 80.6 0 46 34.6 46 78s34.6 78 78 78c19.2 0 36.5-4.9 43.3-13.1-7.1 3.3-15 5.1-23.3 5.1-30.9 0-56-25.1-56-56Z" fill="#e9fff8" opacity="0.25" />
      <path d="M144 8c-30.9 0-56 25.1-56 56s25.1 56 56 56c9.6 0 18.7-2.4 26.6-6.8l41.4 15.4c14.9 5.6 23.3 4.2 25.3-4.2 1-4.1-1.9-8.2-6.9-10.8l7.7-2.1c5.5-1.5 6.9-9.5 2.3-12.6l-8.2-5.5 6.3-1.7c5.8-1.6 7.2-10.2 2.2-13.3l-9.5-5.9 6.5-1.8c6.4-1.8 7.8-10.9 1.9-14.5l-10.3-6.1 5.1-1.4c6.1-1.7 7.6-11 1.7-14.6-28.9-18.3-61.3-28-85-28Z" fill="url(#g)" />
      <path d="M144 104c-22.1 0-40-17.9-40-40S121.9 24 144 24c22.1 0 40 17.9 40 40s-17.9 40-40 40Zm0-12c15.5 0 28-12.5 28-28s-12.5-28-28-28-28 12.5-28 28 12.5 28 28 28Z" fill="#fff" fill-opacity="0.85" />
      <path d="M144 88c-13.3 0-24-10.7-24-24s10.7-24 24-24" stroke="#fff" stroke-width="4" stroke-linecap="round" stroke-opacity="0.9" fill="none" />
    </g>
  </g>
</svg>
