<svg xmlns="http://www.w3.org/2000/svg" width="256" height="256" viewBox="0 0 256 256" role="img" aria-labelledby="title desc">
  <title id="title">AT Supply Finder Logo</title>
<desc id="desc">A medical cross with athletic tape and training equipment symbolizing medical equipment finder</desc>
  <defs>
    <linearGradient id="primaryGradient" x1="0%" y1="0%" x2="100%" y2="100%">
      <stop offset="0%" stop-color="#0088cc" />
      <stop offset="100%" stop-color="#005580" />
    </linearGradient>
    <linearGradient id="secondaryGradient" x1="0%" y1="0%" x2="100%" y2="100%">
      <stop offset="0%" stop-color="#e74c3c" />
      <stop offset="100%" stop-color="#c0392b" />
    </linearGradient>
    <clipPath id="c"><rect x="0" y="0" width="256" height="256" rx="36" /></clipPath>
  </defs>
  <g clip-path="url(#c)">
    <rect width="256" height="256" fill="#f8f9fa" />
    
    <!-- Medical Cross Base -->
    <rect x="78" y="48" width="100" height="160" rx="8" fill="url(#primaryGradient)" />
    <rect x="48" y="78" width="160" height="100" rx="8" fill="url(#primaryGradient)" />
    
    <!-- Athletic Tape Wrapping -->
    <path d="M128 40 C 180 40, 200 80, 200 128 C 200 176, 180 216, 128 216 C 76 216, 56 176, 56 128 C 56 80, 76 40, 128 40 Z" fill="none" stroke="#f1c40f" stroke-width="12" stroke-dasharray="20,10" />
    
    <!-- Center Circle -->
    <circle cx="128" cy="128" r="40" fill="white" stroke="url(#secondaryGradient)" stroke-width="6" />
    
    <!-- Heartbeat Line -->
    <path d="M98 128 L 113 128 L 118 113 L 128 143 L 138 113 L 143 128 L 158 128" fill="none" stroke="url(#secondaryGradient)" stroke-width="6" stroke-linecap="round" stroke-linejoin="round" />
    
    <!-- Star Burst Effect -->
    <g transform="translate(128, 128)">
      <path d="M0,-60 L5,-20 L40,-40 L15,-10 L50,10 L15,15 L30,50 L0,25 L-30,50 L-15,15 L-50,10 L-15,-10 L-40,-40 L-5,-20 Z" fill="#f1c40f" opacity="0.2" />
    </g>
  </g>
</svg>
